<?xml version="1.0" encoding="UTF-8" standalone="no"?>
<!DOCTYPE svg PUBLIC "-//W3C//DTD SVG 1.1//EN"
 "http://www.w3.org/Graphics/SVG/1.1/DTD/svg11.dtd">
<!-- Generated by graphviz version 2.47.0 (20210316.0004)
 -->
<!-- Title: dependencies Pages: 1 -->
<svg width="2912pt" height="284pt"
 viewBox="0.00 0.00 2912.00 284.00" xmlns="http://www.w3.org/2000/svg" xmlns:xlink="http://www.w3.org/1999/xlink">
<g id="graph0" class="graph" transform="scale(1 1) rotate(0) translate(4 280)">
<title>dependencies</title>
<polygon fill="white" stroke="transparent" points="-4,4 -4,-280 2908,-280 2908,4 -4,4"/>
<text text-anchor="start" x="1431.01" y="-42.4" font-family="sans-serif" font-weight="bold" font-size="14.00">Legend</text>
<polygon fill="#ffffb3" stroke="transparent" points="1218,-10 1218,-30 1238,-30 1238,-10 1218,-10"/>
<text text-anchor="start" x="1241.63" y="-15.4" font-family="sans-serif" font-size="14.00"> &#160;Declarations</text>
<polygon fill="#8dd3c7" stroke="transparent" points="1331,-10 1331,-30 1351,-30 1351,-10 1331,-10"/>
<text text-anchor="start" x="1354.73" y="-15.4" font-family="sans-serif" font-size="14.00"> &#160;Module</text>
<polygon fill="#80b1d3" stroke="transparent" points="1417,-10 1417,-30 1437,-30 1437,-10 1417,-10"/>
<text text-anchor="start" x="1440.78" y="-15.4" font-family="sans-serif" font-size="14.00"> &#160;Bootstrap</text>
<polygon fill="#fdb462" stroke="transparent" points="1514,-10 1514,-30 1534,-30 1534,-10 1514,-10"/>
<text text-anchor="start" x="1537.67" y="-15.4" font-family="sans-serif" font-size="14.00"> &#160;Providers</text>
<polygon fill="#fb8072" stroke="transparent" points="1610,-10 1610,-30 1630,-30 1630,-10 1610,-10"/>
<text text-anchor="start" x="1633.73" y="-15.4" font-family="sans-serif" font-size="14.00"> &#160;Exports</text>
<g id="clust1" class="cluster">
<title>cluster_AppModule</title>
<polygon fill="none" stroke="black" stroke-dasharray="1,5" points="8,-70 8,-268 2896,-268 2896,-70 8,-70"/>
</g>
<g id="clust2" class="cluster">
<title>cluster_AppModule_declarations</title>
<polygon fill="none" stroke="black" points="168,-78 168,-130 2888,-130 2888,-78 168,-78"/>
</g>
<g id="clust21" class="cluster">
<title>cluster_AppModule_imports</title>
<polygon fill="none" stroke="black" points="16,-78 16,-130 160,-130 160,-78 16,-78"/>
</g>
<g id="clust23" class="cluster">
<title>cluster_AppModule_bootstrap</title>
<polygon fill="none" stroke="black" points="1380,-208 1380,-260 1504,-260 1504,-208 1380,-208"/>
</g>
<!-- AlertasComponent -->
<g id="node1" class="node">
<title>AlertasComponent</title>
<polygon fill="#ffffb3" stroke="black" points="2879.75,-122 2758.25,-122 2758.25,-86 2879.75,-86 2879.75,-122"/>
<text text-anchor="middle" x="2819" y="-99.8" font-family="Times,serif" font-size="14.00">AlertasComponent</text>
</g>
<!-- AppModule -->
<g id="node19" class="node">
<title>AppModule</title>
<polygon fill="#8dd3c7" stroke="black" points="1483.66,-187 1480.66,-191 1459.66,-191 1456.66,-187 1400.34,-187 1400.34,-151 1483.66,-151 1483.66,-187"/>
<text text-anchor="middle" x="1442" y="-164.8" font-family="Times,serif" font-size="14.00">AppModule</text>
</g>
<!-- AlertasComponent&#45;&gt;AppModule -->
<g id="edge1" class="edge">
<title>AlertasComponent&#45;&gt;AppModule</title>
<path fill="none" stroke="black" d="M2819,-122.15C2819,-145.76 2819,-184 2819,-184 2819,-184 1493.96,-184 1493.96,-184"/>
<polygon fill="black" stroke="black" points="1493.96,-180.5 1483.96,-184 1493.96,-187.5 1493.96,-180.5"/>
</g>
<!-- AppComponent -->
<g id="node2" class="node">
<title>AppComponent</title>
<polygon fill="#ffffb3" stroke="black" points="2739.94,-122 2634.06,-122 2634.06,-86 2739.94,-86 2739.94,-122"/>
<text text-anchor="middle" x="2687" y="-99.8" font-family="Times,serif" font-size="14.00">AppComponent</text>
</g>
<!-- AppComponent&#45;&gt;AppModule -->
<g id="edge2" class="edge">
<title>AppComponent&#45;&gt;AppModule</title>
<path fill="none" stroke="black" d="M2687,-122.01C2687,-144.49 2687,-180 2687,-180 2687,-180 1493.78,-180 1493.78,-180"/>
<polygon fill="black" stroke="black" points="1493.78,-176.5 1483.78,-180 1493.78,-183.5 1493.78,-176.5"/>
</g>
<!-- CadastrarComponent -->
<g id="node3" class="node">
<title>CadastrarComponent</title>
<polygon fill="#ffffb3" stroke="black" points="2616.47,-122 2481.53,-122 2481.53,-86 2616.47,-86 2616.47,-122"/>
<text text-anchor="middle" x="2549" y="-99.8" font-family="Times,serif" font-size="14.00">CadastrarComponent</text>
</g>
<!-- CadastrarComponent&#45;&gt;AppModule -->
<g id="edge3" class="edge">
<title>CadastrarComponent&#45;&gt;AppModule</title>
<path fill="none" stroke="black" d="M2549,-122.04C2549,-143.66 2549,-177 2549,-177 2549,-177 1493.71,-177 1493.71,-177"/>
<polygon fill="black" stroke="black" points="1493.71,-173.5 1483.71,-177 1493.71,-180.5 1493.71,-173.5"/>
</g>
<!-- EntrarComponent -->
<g id="node4" class="node">
<title>EntrarComponent</title>
<polygon fill="#ffffb3" stroke="black" points="2463.31,-122 2346.69,-122 2346.69,-86 2463.31,-86 2463.31,-122"/>
<text text-anchor="middle" x="2405" y="-99.8" font-family="Times,serif" font-size="14.00">EntrarComponent</text>
</g>
<!-- EntrarComponent&#45;&gt;AppModule -->
<g id="edge4" class="edge">
<title>EntrarComponent&#45;&gt;AppModule</title>
<path fill="none" stroke="black" d="M2405,-122.13C2405,-142.57 2405,-173 2405,-173 2405,-173 1493.69,-173 1493.69,-173"/>
<polygon fill="black" stroke="black" points="1493.69,-169.5 1483.69,-173 1493.69,-176.5 1493.69,-169.5"/>
</g>
<!-- FeedPostagemComponent -->
<g id="node5" class="node">
<title>FeedPostagemComponent</title>
<polygon fill="#ffffb3" stroke="black" points="2328.48,-122 2165.52,-122 2165.52,-86 2328.48,-86 2328.48,-122"/>
<text text-anchor="middle" x="2247" y="-99.8" font-family="Times,serif" font-size="14.00">FeedPostagemComponent</text>
</g>
<!-- FeedPostagemComponent&#45;&gt;AppModule -->
<g id="edge5" class="edge">
<title>FeedPostagemComponent&#45;&gt;AppModule</title>
<path fill="none" stroke="black" d="M2247,-122.11C2247,-141.34 2247,-169 2247,-169 2247,-169 1493.87,-169 1493.87,-169"/>
<polygon fill="black" stroke="black" points="1493.87,-165.5 1483.87,-169 1493.87,-172.5 1493.87,-165.5"/>
</g>
<!-- GroupComponent -->
<g id="node6" class="node">
<title>GroupComponent</title>
<polygon fill="#ffffb3" stroke="black" points="2147.6,-122 2030.4,-122 2030.4,-86 2147.6,-86 2147.6,-122"/>
<text text-anchor="middle" x="2089" y="-99.8" font-family="Times,serif" font-size="14.00">GroupComponent</text>
</g>
<!-- GroupComponent&#45;&gt;AppModule -->
<g id="edge6" class="edge">
<title>GroupComponent&#45;&gt;AppModule</title>
<path fill="none" stroke="black" d="M2089,-122.27C2089,-140.56 2089,-166 2089,-166 2089,-166 1493.95,-166 1493.95,-166"/>
<polygon fill="black" stroke="black" points="1493.95,-162.5 1483.95,-166 1493.95,-169.5 1493.95,-162.5"/>
</g>
<!-- HomeGrupoComponent -->
<g id="node7" class="node">
<title>HomeGrupoComponent</title>
<polygon fill="#ffffb3" stroke="black" points="2012.81,-122 1861.19,-122 1861.19,-86 2012.81,-86 2012.81,-122"/>
<text text-anchor="middle" x="1937" y="-99.8" font-family="Times,serif" font-size="14.00">HomeGrupoComponent</text>
</g>
<!-- HomeGrupoComponent&#45;&gt;AppModule -->
<g id="edge7" class="edge">
<title>HomeGrupoComponent&#45;&gt;AppModule</title>
<path fill="none" stroke="black" d="M1937,-122.03C1937,-139.06 1937,-162 1937,-162 1937,-162 1493.78,-162 1493.78,-162"/>
<polygon fill="black" stroke="black" points="1493.78,-158.5 1483.78,-162 1493.78,-165.5 1493.78,-158.5"/>
</g>
<!-- HomeTemaComponent -->
<g id="node8" class="node">
<title>HomeTemaComponent</title>
<polygon fill="#ffffb3" stroke="black" points="1843.92,-122 1696.08,-122 1696.08,-86 1843.92,-86 1843.92,-122"/>
<text text-anchor="middle" x="1770" y="-99.8" font-family="Times,serif" font-size="14.00">HomeTemaComponent</text>
</g>
<!-- HomeTemaComponent&#45;&gt;AppModule -->
<g id="edge8" class="edge">
<title>HomeTemaComponent&#45;&gt;AppModule</title>
<path fill="none" stroke="black" d="M1770,-122.01C1770,-138.05 1770,-159 1770,-159 1770,-159 1493.87,-159 1493.87,-159"/>
<polygon fill="black" stroke="black" points="1493.87,-155.5 1483.87,-159 1493.87,-162.5 1493.87,-155.5"/>
</g>
<!-- HomeUsuarioComponent -->
<g id="node9" class="node">
<title>HomeUsuarioComponent</title>
<polygon fill="#ffffb3" stroke="black" points="1677.86,-122 1518.14,-122 1518.14,-86 1677.86,-86 1677.86,-122"/>
<text text-anchor="middle" x="1598" y="-99.8" font-family="Times,serif" font-size="14.00">HomeUsuarioComponent</text>
</g>
<!-- HomeUsuarioComponent&#45;&gt;AppModule -->
<g id="edge9" class="edge">
<title>HomeUsuarioComponent&#45;&gt;AppModule</title>
<path fill="none" stroke="black" d="M1598,-122.12C1598,-136.78 1598,-155 1598,-155 1598,-155 1493.81,-155 1493.81,-155"/>
<polygon fill="black" stroke="black" points="1493.81,-151.5 1483.81,-155 1493.81,-158.5 1493.81,-151.5"/>
</g>
<!-- InicialComponent -->
<g id="node10" class="node">
<title>InicialComponent</title>
<polygon fill="#ffffb3" stroke="black" points="1500.59,-122 1383.41,-122 1383.41,-86 1500.59,-86 1500.59,-122"/>
<text text-anchor="middle" x="1442" y="-99.8" font-family="Times,serif" font-size="14.00">InicialComponent</text>
</g>
<!-- InicialComponent&#45;&gt;AppModule -->
<g id="edge10" class="edge">
<title>InicialComponent&#45;&gt;AppModule</title>
<path fill="none" stroke="black" d="M1442,-122.11C1442,-122.11 1442,-140.99 1442,-140.99"/>
<polygon fill="black" stroke="black" points="1438.5,-140.99 1442,-150.99 1445.5,-140.99 1438.5,-140.99"/>
</g>
<!-- MenuComponent -->
<g id="node11" class="node">
<title>MenuComponent</title>
<polygon fill="#ffffb3" stroke="black" points="1364.99,-122 1251.01,-122 1251.01,-86 1364.99,-86 1364.99,-122"/>
<text text-anchor="middle" x="1308" y="-99.8" font-family="Times,serif" font-size="14.00">MenuComponent</text>
</g>
<!-- MenuComponent&#45;&gt;AppModule -->
<g id="edge11" class="edge">
<title>MenuComponent&#45;&gt;AppModule</title>
<path fill="none" stroke="black" d="M1308,-122.12C1308,-136.78 1308,-155 1308,-155 1308,-155 1390.34,-155 1390.34,-155"/>
<polygon fill="black" stroke="black" points="1390.34,-158.5 1400.34,-155 1390.34,-151.5 1390.34,-158.5"/>
</g>
<!-- NavbarPaginaEstaticaComponent -->
<g id="node12" class="node">
<title>NavbarPaginaEstaticaComponent</title>
<polygon fill="#ffffb3" stroke="black" points="1233.44,-122 1028.56,-122 1028.56,-86 1233.44,-86 1233.44,-122"/>
<text text-anchor="middle" x="1131" y="-99.8" font-family="Times,serif" font-size="14.00">NavbarPaginaEstaticaComponent</text>
</g>
<!-- NavbarPaginaEstaticaComponent&#45;&gt;AppModule -->
<g id="edge12" class="edge">
<title>NavbarPaginaEstaticaComponent&#45;&gt;AppModule</title>
<path fill="none" stroke="black" d="M1131,-122.01C1131,-138.05 1131,-159 1131,-159 1131,-159 1390.06,-159 1390.06,-159"/>
<polygon fill="black" stroke="black" points="1390.06,-162.5 1400.06,-159 1390.06,-155.5 1390.06,-162.5"/>
</g>
<!-- PilaresComponent -->
<g id="node13" class="node">
<title>PilaresComponent</title>
<polygon fill="#ffffb3" stroke="black" points="1010.93,-122 891.07,-122 891.07,-86 1010.93,-86 1010.93,-122"/>
<text text-anchor="middle" x="951" y="-99.8" font-family="Times,serif" font-size="14.00">PilaresComponent</text>
</g>
<!-- PilaresComponent&#45;&gt;AppModule -->
<g id="edge13" class="edge">
<title>PilaresComponent&#45;&gt;AppModule</title>
<path fill="none" stroke="black" d="M951,-122.03C951,-139.06 951,-162 951,-162 951,-162 1390.14,-162 1390.14,-162"/>
<polygon fill="black" stroke="black" points="1390.14,-165.5 1400.14,-162 1390.14,-158.5 1390.14,-165.5"/>
</g>
<!-- RodapeComponent -->
<g id="node14" class="node">
<title>RodapeComponent</title>
<polygon fill="#ffffb3" stroke="black" points="873.1,-122 748.9,-122 748.9,-86 873.1,-86 873.1,-122"/>
<text text-anchor="middle" x="811" y="-99.8" font-family="Times,serif" font-size="14.00">RodapeComponent</text>
</g>
<!-- RodapeComponent&#45;&gt;AppModule -->
<g id="edge14" class="edge">
<title>RodapeComponent&#45;&gt;AppModule</title>
<path fill="none" stroke="black" d="M811,-122.27C811,-140.56 811,-166 811,-166 811,-166 1390.11,-166 1390.11,-166"/>
<polygon fill="black" stroke="black" points="1390.11,-169.5 1400.11,-166 1390.11,-162.5 1390.11,-169.5"/>
</g>
<!-- SearchComponent -->
<g id="node15" class="node">
<title>SearchComponent</title>
<polygon fill="#ffffb3" stroke="black" points="730.92,-122 611.08,-122 611.08,-86 730.92,-86 730.92,-122"/>
<text text-anchor="middle" x="671" y="-99.8" font-family="Times,serif" font-size="14.00">SearchComponent</text>
</g>
<!-- SearchComponent&#45;&gt;AppModule -->
<g id="edge15" class="edge">
<title>SearchComponent&#45;&gt;AppModule</title>
<path fill="none" stroke="black" d="M671,-122.11C671,-141.34 671,-169 671,-169 671,-169 1390.27,-169 1390.27,-169"/>
<polygon fill="black" stroke="black" points="1390.27,-172.5 1400.27,-169 1390.27,-165.5 1390.27,-172.5"/>
</g>
<!-- SobreNosComponent -->
<g id="node16" class="node">
<title>SobreNosComponent</title>
<polygon fill="#ffffb3" stroke="black" points="593.04,-122 456.96,-122 456.96,-86 593.04,-86 593.04,-122"/>
<text text-anchor="middle" x="525" y="-99.8" font-family="Times,serif" font-size="14.00">SobreNosComponent</text>
</g>
<!-- SobreNosComponent&#45;&gt;AppModule -->
<g id="edge16" class="edge">
<title>SobreNosComponent&#45;&gt;AppModule</title>
<path fill="none" stroke="black" d="M525,-122.13C525,-142.57 525,-173 525,-173 525,-173 1390.22,-173 1390.22,-173"/>
<polygon fill="black" stroke="black" points="1390.22,-176.5 1400.22,-173 1390.22,-169.5 1390.22,-176.5"/>
</g>
<!-- ThemeComponent -->
<g id="node17" class="node">
<title>ThemeComponent</title>
<polygon fill="#ffffb3" stroke="black" points="439.2,-122 318.8,-122 318.8,-86 439.2,-86 439.2,-122"/>
<text text-anchor="middle" x="379" y="-99.8" font-family="Times,serif" font-size="14.00">ThemeComponent</text>
</g>
<!-- ThemeComponent&#45;&gt;AppModule -->
<g id="edge17" class="edge">
<title>ThemeComponent&#45;&gt;AppModule</title>
<path fill="none" stroke="black" d="M379,-122.04C379,-143.66 379,-177 379,-177 379,-177 1390.33,-177 1390.33,-177"/>
<polygon fill="black" stroke="black" points="1390.33,-180.5 1400.33,-177 1390.33,-173.5 1390.33,-180.5"/>
</g>
<!-- ValoresComponent -->
<g id="node18" class="node">
<title>ValoresComponent</title>
<polygon fill="#ffffb3" stroke="black" points="300.36,-122 175.64,-122 175.64,-86 300.36,-86 300.36,-122"/>
<text text-anchor="middle" x="238" y="-99.8" font-family="Times,serif" font-size="14.00">ValoresComponent</text>
</g>
<!-- ValoresComponent&#45;&gt;AppModule -->
<g id="edge18" class="edge">
<title>ValoresComponent&#45;&gt;AppModule</title>
<path fill="none" stroke="black" d="M238,-122.01C238,-144.49 238,-180 238,-180 238,-180 1390.21,-180 1390.21,-180"/>
<polygon fill="black" stroke="black" points="1390.21,-183.5 1400.21,-180 1390.21,-176.5 1390.21,-183.5"/>
</g>
<!-- AppComponent  -->
<g id="node21" class="node">
<title>AppComponent </title>
<polygon fill="#80b1d3" stroke="black" points="1496.44,-252 1387.56,-252 1387.56,-216 1496.44,-216 1496.44,-252"/>
<text text-anchor="middle" x="1442" y="-229.8" font-family="Times,serif" font-size="14.00">AppComponent </text>
</g>
<!-- AppModule&#45;&gt;AppComponent  -->
<g id="edge20" class="edge">
<title>AppModule&#45;&gt;AppComponent </title>
<path fill="none" stroke="black" stroke-dasharray="1,5" d="M1442,-187.11C1442,-187.11 1442,-205.99 1442,-205.99"/>
<polygon fill="black" stroke="black" points="1438.5,-205.99 1442,-215.99 1445.5,-205.99 1438.5,-205.99"/>
</g>
<!-- AppRoutingModule -->
<g id="node20" class="node">
<title>AppRoutingModule</title>
<polygon fill="#8dd3c7" stroke="black" points="152.27,-122 149.27,-126 128.27,-126 125.27,-122 23.73,-122 23.73,-86 152.27,-86 152.27,-122"/>
<text text-anchor="middle" x="88" y="-99.8" font-family="Times,serif" font-size="14.00">AppRoutingModule</text>
</g>
<!-- AppRoutingModule&#45;&gt;AppModule -->
<g id="edge19" class="edge">
<title>AppRoutingModule&#45;&gt;AppModule</title>
<path fill="none" stroke="black" d="M88,-122.15C88,-145.76 88,-184 88,-184 88,-184 1389.99,-184 1389.99,-184"/>
<polygon fill="black" stroke="black" points="1389.99,-187.5 1399.99,-184 1389.99,-180.5 1389.99,-187.5"/>
</g>
</g>
</svg>
