<?xml version="1.0" encoding="UTF-8" standalone="no"?>
<!DOCTYPE svg PUBLIC "-//W3C//DTD SVG 1.1//EN"
 "http://www.w3.org/Graphics/SVG/1.1/DTD/svg11.dtd">
<!-- Generated by graphviz version 2.47.0 (20210316.0004)
 -->
<!-- Title: dependencies Pages: 1 -->
<svg width="2912pt" height="284pt"
 viewBox="0.00 0.00 2912.00 284.00" xmlns="http://www.w3.org/2000/svg" xmlns:xlink="http://www.w3.org/1999/xlink">
<g id="graph0" class="graph" transform="scale(1 1) rotate(0) translate(4 280)">
<title>dependencies</title>
<polygon fill="white" stroke="transparent" points="-4,4 -4,-280 2908,-280 2908,4 -4,4"/>
<text text-anchor="start" x="1431.01" y="-42.4" font-family="sans-serif" font-weight="bold" font-size="14.00">Legend</text>
<polygon fill="#ffffb3" stroke="transparent" points="1218,-10 1218,-30 1238,-30 1238,-10 1218,-10"/>
<text text-anchor="start" x="1241.63" y="-15.4" font-family="sans-serif" font-size="14.00"> &#160;Declarations</text>
<polygon fill="#8dd3c7" stroke="transparent" points="1331,-10 1331,-30 1351,-30 1351,-10 1331,-10"/>
<text text-anchor="start" x="1354.73" y="-15.4" font-family="sans-serif" font-size="14.00"> &#160;Module</text>
<polygon fill="#80b1d3" stroke="transparent" points="1417,-10 1417,-30 1437,-30 1437,-10 1417,-10"/>
<text text-anchor="start" x="1440.78" y="-15.4" font-family="sans-serif" font-size="14.00"> &#160;Bootstrap</text>
<polygon fill="#fdb462" stroke="transparent" points="1514,-10 1514,-30 1534,-30 1534,-10 1514,-10"/>
<text text-anchor="start" x="1537.67" y="-15.4" font-family="sans-serif" font-size="14.00"> &#160;Providers</text>
<polygon fill="#fb8072" stroke="transparent" points="1610,-10 1610,-30 1630,-30 1630,-10 1610,-10"/>
<text text-anchor="start" x="1633.73" y="-15.4" font-family="sans-serif" font-size="14.00"> &#160;Exports</text>
<g id="clust1" class="cluster">
<title>cluster_AppModule</title>
<polygon fill="none" stroke="black" stroke-dasharray="1,5" points="8,-70 8,-268 2896,-268 2896,-70 8,-70"/>
</g>
<g id="clust21" class="cluster">
<title>cluster_AppModule_imports</title>
<polygon fill="none" stroke="black" points="2744,-78 2744,-130 2888,-130 2888,-78 2744,-78"/>
</g>
<g id="clust23" class="cluster">
<title>cluster_AppModule_bootstrap</title>
<polygon fill="none" stroke="black" points="1384,-208 1384,-260 1508,-260 1508,-208 1384,-208"/>
</g>
<g id="clust2" class="cluster">
<title>cluster_AppModule_declarations</title>
<polygon fill="none" stroke="black" points="16,-78 16,-130 2736,-130 2736,-78 16,-78"/>
</g>
<!-- AlertasComponent -->
<g id="node1" class="node">
<title>AlertasComponent</title>
<polygon fill="#ffffb3" stroke="black" points="2727.75,-122 2606.25,-122 2606.25,-86 2727.75,-86 2727.75,-122"/>
<text text-anchor="middle" x="2667" y="-99.8" font-family="Times,serif" font-size="14.00">AlertasComponent</text>
</g>
<!-- AppModule -->
<g id="node19" class="node">
<title>AppModule</title>
<polygon fill="#8dd3c7" stroke="black" points="1487.66,-187 1484.66,-191 1463.66,-191 1460.66,-187 1404.34,-187 1404.34,-151 1487.66,-151 1487.66,-187"/>
<text text-anchor="middle" x="1446" y="-164.8" font-family="Times,serif" font-size="14.00">AppModule</text>
</g>
<!-- AlertasComponent&#45;&gt;AppModule -->
<g id="edge1" class="edge">
<title>AlertasComponent&#45;&gt;AppModule</title>
<path fill="none" stroke="black" d="M2667,-122.01C2667,-144.49 2667,-180 2667,-180 2667,-180 1497.68,-180 1497.68,-180"/>
<polygon fill="black" stroke="black" points="1497.68,-176.5 1487.68,-180 1497.68,-183.5 1497.68,-176.5"/>
</g>
<!-- AppComponent -->
<g id="node2" class="node">
<title>AppComponent</title>
<polygon fill="#ffffb3" stroke="black" points="2587.94,-122 2482.06,-122 2482.06,-86 2587.94,-86 2587.94,-122"/>
<text text-anchor="middle" x="2535" y="-99.8" font-family="Times,serif" font-size="14.00">AppComponent</text>
</g>
<!-- AppComponent&#45;&gt;AppModule -->
<g id="edge2" class="edge">
<title>AppComponent&#45;&gt;AppModule</title>
<path fill="none" stroke="black" d="M2535,-122.04C2535,-143.66 2535,-177 2535,-177 2535,-177 1497.69,-177 1497.69,-177"/>
<polygon fill="black" stroke="black" points="1497.69,-173.5 1487.69,-177 1497.69,-180.5 1497.69,-173.5"/>
</g>
<!-- CadastrarComponent -->
<g id="node3" class="node">
<title>CadastrarComponent</title>
<polygon fill="#ffffb3" stroke="black" points="2464.47,-122 2329.53,-122 2329.53,-86 2464.47,-86 2464.47,-122"/>
<text text-anchor="middle" x="2397" y="-99.8" font-family="Times,serif" font-size="14.00">CadastrarComponent</text>
</g>
<!-- CadastrarComponent&#45;&gt;AppModule -->
<g id="edge3" class="edge">
<title>CadastrarComponent&#45;&gt;AppModule</title>
<path fill="none" stroke="black" d="M2397,-122.13C2397,-142.57 2397,-173 2397,-173 2397,-173 1497.78,-173 1497.78,-173"/>
<polygon fill="black" stroke="black" points="1497.78,-169.5 1487.78,-173 1497.78,-176.5 1497.78,-169.5"/>
</g>
<!-- EntrarComponent -->
<g id="node4" class="node">
<title>EntrarComponent</title>
<polygon fill="#ffffb3" stroke="black" points="2311.31,-122 2194.69,-122 2194.69,-86 2311.31,-86 2311.31,-122"/>
<text text-anchor="middle" x="2253" y="-99.8" font-family="Times,serif" font-size="14.00">EntrarComponent</text>
</g>
<!-- EntrarComponent&#45;&gt;AppModule -->
<g id="edge4" class="edge">
<title>EntrarComponent&#45;&gt;AppModule</title>
<path fill="none" stroke="black" d="M2253,-122.11C2253,-141.34 2253,-169 2253,-169 2253,-169 1497.69,-169 1497.69,-169"/>
<polygon fill="black" stroke="black" points="1497.69,-165.5 1487.69,-169 1497.69,-172.5 1497.69,-165.5"/>
</g>
<!-- FeedPostagemComponent -->
<g id="node5" class="node">
<title>FeedPostagemComponent</title>
<polygon fill="#ffffb3" stroke="black" points="2176.48,-122 2013.52,-122 2013.52,-86 2176.48,-86 2176.48,-122"/>
<text text-anchor="middle" x="2095" y="-99.8" font-family="Times,serif" font-size="14.00">FeedPostagemComponent</text>
</g>
<!-- FeedPostagemComponent&#45;&gt;AppModule -->
<g id="edge5" class="edge">
<title>FeedPostagemComponent&#45;&gt;AppModule</title>
<path fill="none" stroke="black" d="M2095,-122.27C2095,-140.56 2095,-166 2095,-166 2095,-166 1498.08,-166 1498.08,-166"/>
<polygon fill="black" stroke="black" points="1498.08,-162.5 1488.08,-166 1498.08,-169.5 1498.08,-162.5"/>
</g>
<!-- GroupComponent -->
<g id="node6" class="node">
<title>GroupComponent</title>
<polygon fill="#ffffb3" stroke="black" points="1995.6,-122 1878.4,-122 1878.4,-86 1995.6,-86 1995.6,-122"/>
<text text-anchor="middle" x="1937" y="-99.8" font-family="Times,serif" font-size="14.00">GroupComponent</text>
</g>
<!-- GroupComponent&#45;&gt;AppModule -->
<g id="edge6" class="edge">
<title>GroupComponent&#45;&gt;AppModule</title>
<path fill="none" stroke="black" d="M1937,-122.03C1937,-139.06 1937,-162 1937,-162 1937,-162 1497.86,-162 1497.86,-162"/>
<polygon fill="black" stroke="black" points="1497.86,-158.5 1487.86,-162 1497.86,-165.5 1497.86,-158.5"/>
</g>
<!-- HomeGrupoComponent -->
<g id="node7" class="node">
<title>HomeGrupoComponent</title>
<polygon fill="#ffffb3" stroke="black" points="1860.81,-122 1709.19,-122 1709.19,-86 1860.81,-86 1860.81,-122"/>
<text text-anchor="middle" x="1785" y="-99.8" font-family="Times,serif" font-size="14.00">HomeGrupoComponent</text>
</g>
<!-- HomeGrupoComponent&#45;&gt;AppModule -->
<g id="edge7" class="edge">
<title>HomeGrupoComponent&#45;&gt;AppModule</title>
<path fill="none" stroke="black" d="M1785,-122.01C1785,-138.05 1785,-159 1785,-159 1785,-159 1497.91,-159 1497.91,-159"/>
<polygon fill="black" stroke="black" points="1497.91,-155.5 1487.91,-159 1497.91,-162.5 1497.91,-155.5"/>
</g>
<!-- HomeTemaComponent -->
<g id="node8" class="node">
<title>HomeTemaComponent</title>
<polygon fill="#ffffb3" stroke="black" points="1691.92,-122 1544.08,-122 1544.08,-86 1691.92,-86 1691.92,-122"/>
<text text-anchor="middle" x="1618" y="-99.8" font-family="Times,serif" font-size="14.00">HomeTemaComponent</text>
</g>
<!-- HomeTemaComponent&#45;&gt;AppModule -->
<g id="edge8" class="edge">
<title>HomeTemaComponent&#45;&gt;AppModule</title>
<path fill="none" stroke="black" d="M1618,-122.12C1618,-136.78 1618,-155 1618,-155 1618,-155 1498.08,-155 1498.08,-155"/>
<polygon fill="black" stroke="black" points="1498.08,-151.5 1488.08,-155 1498.08,-158.5 1498.08,-151.5"/>
</g>
<!-- HomeUsuarioComponent -->
<g id="node9" class="node">
<title>HomeUsuarioComponent</title>
<polygon fill="#ffffb3" stroke="black" points="1525.86,-122 1366.14,-122 1366.14,-86 1525.86,-86 1525.86,-122"/>
<text text-anchor="middle" x="1446" y="-99.8" font-family="Times,serif" font-size="14.00">HomeUsuarioComponent</text>
</g>
<!-- HomeUsuarioComponent&#45;&gt;AppModule -->
<g id="edge9" class="edge">
<title>HomeUsuarioComponent&#45;&gt;AppModule</title>
<path fill="none" stroke="black" d="M1446,-122.11C1446,-122.11 1446,-140.99 1446,-140.99"/>
<polygon fill="black" stroke="black" points="1442.5,-140.99 1446,-150.99 1449.5,-140.99 1442.5,-140.99"/>
</g>
<!-- InicialComponent -->
<g id="node10" class="node">
<title>InicialComponent</title>
<polygon fill="#ffffb3" stroke="black" points="1348.59,-122 1231.41,-122 1231.41,-86 1348.59,-86 1348.59,-122"/>
<text text-anchor="middle" x="1290" y="-99.8" font-family="Times,serif" font-size="14.00">InicialComponent</text>
</g>
<!-- InicialComponent&#45;&gt;AppModule -->
<g id="edge10" class="edge">
<title>InicialComponent&#45;&gt;AppModule</title>
<path fill="none" stroke="black" d="M1290,-122.12C1290,-136.78 1290,-155 1290,-155 1290,-155 1394.19,-155 1394.19,-155"/>
<polygon fill="black" stroke="black" points="1394.19,-158.5 1404.19,-155 1394.19,-151.5 1394.19,-158.5"/>
</g>
<!-- MenuComponent -->
<g id="node11" class="node">
<title>MenuComponent</title>
<polygon fill="#ffffb3" stroke="black" points="1212.99,-122 1099.01,-122 1099.01,-86 1212.99,-86 1212.99,-122"/>
<text text-anchor="middle" x="1156" y="-99.8" font-family="Times,serif" font-size="14.00">MenuComponent</text>
</g>
<!-- MenuComponent&#45;&gt;AppModule -->
<g id="edge11" class="edge">
<title>MenuComponent&#45;&gt;AppModule</title>
<path fill="none" stroke="black" d="M1156,-122.01C1156,-138.05 1156,-159 1156,-159 1156,-159 1394.14,-159 1394.14,-159"/>
<polygon fill="black" stroke="black" points="1394.14,-162.5 1404.14,-159 1394.14,-155.5 1394.14,-162.5"/>
</g>
<!-- NavbarPaginaEstaticaComponent -->
<g id="node12" class="node">
<title>NavbarPaginaEstaticaComponent</title>
<polygon fill="#ffffb3" stroke="black" points="1081.44,-122 876.56,-122 876.56,-86 1081.44,-86 1081.44,-122"/>
<text text-anchor="middle" x="979" y="-99.8" font-family="Times,serif" font-size="14.00">NavbarPaginaEstaticaComponent</text>
</g>
<!-- NavbarPaginaEstaticaComponent&#45;&gt;AppModule -->
<g id="edge12" class="edge">
<title>NavbarPaginaEstaticaComponent&#45;&gt;AppModule</title>
<path fill="none" stroke="black" d="M979,-122.03C979,-139.06 979,-162 979,-162 979,-162 1394.15,-162 1394.15,-162"/>
<polygon fill="black" stroke="black" points="1394.15,-165.5 1404.15,-162 1394.15,-158.5 1394.15,-165.5"/>
</g>
<!-- PilaresComponent -->
<g id="node13" class="node">
<title>PilaresComponent</title>
<polygon fill="#ffffb3" stroke="black" points="858.93,-122 739.07,-122 739.07,-86 858.93,-86 858.93,-122"/>
<text text-anchor="middle" x="799" y="-99.8" font-family="Times,serif" font-size="14.00">PilaresComponent</text>
</g>
<!-- PilaresComponent&#45;&gt;AppModule -->
<g id="edge13" class="edge">
<title>PilaresComponent&#45;&gt;AppModule</title>
<path fill="none" stroke="black" d="M799,-122.27C799,-140.56 799,-166 799,-166 799,-166 1394.05,-166 1394.05,-166"/>
<polygon fill="black" stroke="black" points="1394.05,-169.5 1404.05,-166 1394.05,-162.5 1394.05,-169.5"/>
</g>
<!-- RodapeComponent -->
<g id="node14" class="node">
<title>RodapeComponent</title>
<polygon fill="#ffffb3" stroke="black" points="721.1,-122 596.9,-122 596.9,-86 721.1,-86 721.1,-122"/>
<text text-anchor="middle" x="659" y="-99.8" font-family="Times,serif" font-size="14.00">RodapeComponent</text>
</g>
<!-- RodapeComponent&#45;&gt;AppModule -->
<g id="edge14" class="edge">
<title>RodapeComponent&#45;&gt;AppModule</title>
<path fill="none" stroke="black" d="M659,-122.11C659,-141.34 659,-169 659,-169 659,-169 1394.24,-169 1394.24,-169"/>
<polygon fill="black" stroke="black" points="1394.24,-172.5 1404.24,-169 1394.24,-165.5 1394.24,-172.5"/>
</g>
<!-- SearchComponent -->
<g id="node15" class="node">
<title>SearchComponent</title>
<polygon fill="#ffffb3" stroke="black" points="578.92,-122 459.08,-122 459.08,-86 578.92,-86 578.92,-122"/>
<text text-anchor="middle" x="519" y="-99.8" font-family="Times,serif" font-size="14.00">SearchComponent</text>
</g>
<!-- SearchComponent&#45;&gt;AppModule -->
<g id="edge15" class="edge">
<title>SearchComponent&#45;&gt;AppModule</title>
<path fill="none" stroke="black" d="M519,-122.13C519,-142.57 519,-173 519,-173 519,-173 1394.06,-173 1394.06,-173"/>
<polygon fill="black" stroke="black" points="1394.06,-176.5 1404.06,-173 1394.06,-169.5 1394.06,-176.5"/>
</g>
<!-- SobreNosComponent -->
<g id="node16" class="node">
<title>SobreNosComponent</title>
<polygon fill="#ffffb3" stroke="black" points="441.04,-122 304.96,-122 304.96,-86 441.04,-86 441.04,-122"/>
<text text-anchor="middle" x="373" y="-99.8" font-family="Times,serif" font-size="14.00">SobreNosComponent</text>
</g>
<!-- SobreNosComponent&#45;&gt;AppModule -->
<g id="edge16" class="edge">
<title>SobreNosComponent&#45;&gt;AppModule</title>
<path fill="none" stroke="black" d="M373,-122.04C373,-143.66 373,-177 373,-177 373,-177 1394.27,-177 1394.27,-177"/>
<polygon fill="black" stroke="black" points="1394.27,-180.5 1404.27,-177 1394.27,-173.5 1394.27,-180.5"/>
</g>
<!-- ThemeComponent -->
<g id="node17" class="node">
<title>ThemeComponent</title>
<polygon fill="#ffffb3" stroke="black" points="287.2,-122 166.8,-122 166.8,-86 287.2,-86 287.2,-122"/>
<text text-anchor="middle" x="227" y="-99.8" font-family="Times,serif" font-size="14.00">ThemeComponent</text>
</g>
<!-- ThemeComponent&#45;&gt;AppModule -->
<g id="edge17" class="edge">
<title>ThemeComponent&#45;&gt;AppModule</title>
<path fill="none" stroke="black" d="M227,-122.01C227,-144.49 227,-180 227,-180 227,-180 1394.04,-180 1394.04,-180"/>
<polygon fill="black" stroke="black" points="1394.04,-183.5 1404.04,-180 1394.04,-176.5 1394.04,-183.5"/>
</g>
<!-- ValoresComponent -->
<g id="node18" class="node">
<title>ValoresComponent</title>
<polygon fill="#ffffb3" stroke="black" points="148.36,-122 23.64,-122 23.64,-86 148.36,-86 148.36,-122"/>
<text text-anchor="middle" x="86" y="-99.8" font-family="Times,serif" font-size="14.00">ValoresComponent</text>
</g>
<!-- ValoresComponent&#45;&gt;AppModule -->
<g id="edge18" class="edge">
<title>ValoresComponent&#45;&gt;AppModule</title>
<path fill="none" stroke="black" d="M86,-122.15C86,-145.76 86,-184 86,-184 86,-184 1394.18,-184 1394.18,-184"/>
<polygon fill="black" stroke="black" points="1394.18,-187.5 1404.18,-184 1394.18,-180.5 1394.18,-187.5"/>
</g>
<!-- AppComponent  -->
<g id="node21" class="node">
<title>AppComponent </title>
<polygon fill="#80b1d3" stroke="black" points="1500.44,-252 1391.56,-252 1391.56,-216 1500.44,-216 1500.44,-252"/>
<text text-anchor="middle" x="1446" y="-229.8" font-family="Times,serif" font-size="14.00">AppComponent </text>
</g>
<!-- AppModule&#45;&gt;AppComponent  -->
<g id="edge20" class="edge">
<title>AppModule&#45;&gt;AppComponent </title>
<path fill="none" stroke="black" stroke-dasharray="1,5" d="M1446,-187.11C1446,-187.11 1446,-205.99 1446,-205.99"/>
<polygon fill="black" stroke="black" points="1442.5,-205.99 1446,-215.99 1449.5,-205.99 1442.5,-205.99"/>
</g>
<!-- AppRoutingModule -->
<g id="node20" class="node">
<title>AppRoutingModule</title>
<polygon fill="#8dd3c7" stroke="black" points="2880.27,-122 2877.27,-126 2856.27,-126 2853.27,-122 2751.73,-122 2751.73,-86 2880.27,-86 2880.27,-122"/>
<text text-anchor="middle" x="2816" y="-99.8" font-family="Times,serif" font-size="14.00">AppRoutingModule</text>
</g>
<!-- AppRoutingModule&#45;&gt;AppModule -->
<g id="edge19" class="edge">
<title>AppRoutingModule&#45;&gt;AppModule</title>
<path fill="none" stroke="black" d="M2816,-122.15C2816,-145.76 2816,-184 2816,-184 2816,-184 1497.75,-184 1497.75,-184"/>
<polygon fill="black" stroke="black" points="1497.75,-180.5 1487.75,-184 1497.75,-187.5 1497.75,-180.5"/>
</g>
</g>
</svg>
